<svg id="Layer_1" data-name="Layer 1" xmlns="http://www.w3.org/2000/svg" viewBox="0 0 1921 1081"><defs><style>.cls-1{fill:#efefe6;stroke:#231f20;}.cls-1,.cls-2{stroke-miterlimit:10;}.cls-2{fill:none;stroke:#fff;stroke-width:3px;}</style></defs><rect class="cls-1" x="0.5" y="0.5" width="1920" height="1080"/><line class="cls-2" x1="96.5" y1="0.5" x2="96.5" y2="1080.5"/><line class="cls-2" x1="192.5" y1="0.5" x2="192.5" y2="1080.5"/><line class="cls-2" x1="288.5" y1="0.5" x2="288.5" y2="1080.5"/><line class="cls-2" x1="960.5" y1="0.5" x2="960.5" y2="1080.5"/><line class="cls-2" x1="864.5" y1="0.5" x2="864.5" y2="1080.5"/><line class="cls-2" x1="768.5" y1="0.5" x2="768.5" y2="1080.5"/><line class="cls-2" x1="672.5" y1="0.5" x2="672.5" y2="1080.5"/><line class="cls-2" x1="576.5" y1="0.5" x2="576.5" y2="1080.5"/><line class="cls-2" x1="480.5" y1="0.5" x2="480.5" y2="1080.5"/><line class="cls-2" x1="384.5" y1="0.5" x2="384.5" y2="1080.5"/><line class="cls-2" x1="1152.5" y1="0.5" x2="1152.5" y2="1080.5"/><line class="cls-2" x1="1248.5" y1="0.5" x2="1248.5" y2="1080.5"/><line class="cls-2" x1="1344.5" y1="0.5" x2="1344.5" y2="1080.5"/><line class="cls-2" x1="1440.5" y1="0.5" x2="1440.5" y2="1080.5"/><line class="cls-2" x1="1536.5" y1="0.5" x2="1536.5" y2="1080.5"/><line class="cls-2" x1="1632.5" y1="0.5" x2="1632.5" y2="1080.5"/><line class="cls-2" x1="1728.5" y1="0.5" x2="1728.5" y2="1080.5"/><line class="cls-2" x1="1824.5" y1="0.5" x2="1824.5" y2="1080.5"/><line class="cls-2" x1="1056.5" y1="0.5" x2="1056.5" y2="1080.5"/><line class="cls-2" x1="0.5" y1="864.5" x2="1080.5" y2="864.5"/><line class="cls-2" x1="0.5" y1="960.5" x2="1080.5" y2="960.5"/><line class="cls-2" x1="0.5" y1="1056.5" x2="1080.5" y2="1056.5"/><line class="cls-2" x1="0.5" y1="672.5" x2="1080.5" y2="672.5"/><line class="cls-2" x1="0.5" y1="576.5" x2="1080.5" y2="576.5"/><line class="cls-2" x1="0.5" y1="480.5" x2="1080.5" y2="480.5"/><line class="cls-2" x1="0.5" y1="384.5" x2="1080.5" y2="384.5"/><line class="cls-2" x1="0.5" y1="288.5" x2="1080.5" y2="288.5"/><line class="cls-2" x1="0.5" y1="192.5" x2="1080.5" y2="192.5"/><line class="cls-2" x1="0.5" y1="96.5" x2="1080.5" y2="96.5"/><line class="cls-2" x1="0.5" y1="768.5" x2="1080.5" y2="768.5"/><line class="cls-2" x1="840.5" y1="864.5" x2="1920.5" y2="864.5"/><line class="cls-2" x1="840.5" y1="960.5" x2="1920.5" y2="960.5"/><line class="cls-2" x1="840.5" y1="1056.5" x2="1920.5" y2="1056.5"/><line class="cls-2" x1="840.5" y1="672.5" x2="1920.5" y2="672.5"/><line class="cls-2" x1="840.5" y1="576.5" x2="1920.5" y2="576.5"/><line class="cls-2" x1="840.5" y1="480.5" x2="1920.5" y2="480.5"/><line class="cls-2" x1="840.5" y1="384.5" x2="1920.5" y2="384.5"/><line class="cls-2" x1="840.5" y1="288.5" x2="1920.5" y2="288.5"/><line class="cls-2" x1="840.5" y1="192.5" x2="1920.5" y2="192.5"/><line class="cls-2" x1="840.5" y1="96.5" x2="1920.5" y2="96.5"/><line class="cls-2" x1="840.5" y1="768.5" x2="1920.5" y2="768.5"/></svg>